<?xml version="1.0" standalone="no"?>
<!DOCTYPE svg PUBLIC "-//W3C//DTD SVG 20010904//EN"
 "http://www.w3.org/TR/2001/REC-SVG-20010904/DTD/svg10.dtd">
<svg version="1.0" xmlns="http://www.w3.org/2000/svg"
 width="260.000000pt" height="260.000000pt" viewBox="0 0 260.000000 260.000000"
 preserveAspectRatio="xMidYMid meet">
<metadata>
Created by potrace 1.14, written by Peter Selinger 2001-2017
</metadata>
<g transform="translate(0.000000,260.000000) scale(0.100000,-0.100000)"
fill="#000000" stroke="none">
<path d="M1140 1325 c0 -690 -3 -1045 -10 -1045 -7 0 -10 307 -10 900 l0 900
-85 0 -85 0 0 -900 c0 -593 -3 -900 -10 -900 -7 0 -10 227 -10 660 l0 660 -80
0 -80 0 0 -660 0 -660 -140 0 -140 0 0 -25 0 -25 810 0 810 0 0 25 0 25 -145
0 -145 0 0 660 0 660 -75 0 -75 0 0 -660 c0 -433 -3 -660 -10 -660 -7 0 -10
307 -10 900 l0 900 -90 0 -90 0 0 -900 c0 -593 -3 -900 -10 -900 -7 0 -10 355
-10 1045 l0 1045 -155 0 -155 0 0 -1045z"/>
</g>
</svg>
